<svg width="800" height="900" viewBox="0 0 800 900"
     xmlns="http://www.w3.org/2000/svg"
     font-family="Arial, Helvetica, sans-serif">

  <defs>
    <style>
      .box {
        fill: #ffffff;
        stroke: #333;
        stroke-width: 1.2;
        rx: 10;
        ry: 10;
      }
      .title {
        font-size: 16px;
        font-weight: bold;
        fill: #111;
      }
      .text {
        font-size: 14px;
        fill: #222;
        pointer-events: none;
      }
      .arrow {
        stroke: #333;
        stroke-width: 1.2;
        marker-end: url(#arrowhead);
      }
      a:hover .box {
        stroke: #4c8bf5;
        stroke-width: 2.2;
        cursor: pointer;
      }
    </style>

    <marker id="arrowhead" markerWidth="10" markerHeight="7"
            refX="10" refY="3.5" orient="auto">
      <polygon points="0 0, 10 3.5, 0 7" fill="#333"/>
    </marker>
  </defs>

  <text x="400" y="40" text-anchor="middle" class="title">
    MOS PCell Architecture (Cadence SKILL)
  </text>

  <a href="#architecture-map">
    <rect x="200" y="70" width="400" height="60" class="box"/>
    <text x="400" y="105" text-anchor="middle" class="text">
      Parameter Input (W, L, nf, rules)
    </text>
  </a>

  <a href="#derived-geometry">
    <rect x="200" y="160" width="400" height="90" class="box"/>
    <text x="400" y="195" text-anchor="middle" class="text">
      Derived Geometry
    </text>
    <text x="400" y="220" text-anchor="middle" class="text">
      gatePitch, activeLen, OD size
    </text>
  </a>

  <a href="#coordinate-frame">
    <rect x="200" y="290" width="400" height="60" class="box"/>
    <text x="400" y="325" text-anchor="middle" class="text">
      Coordinate Frame (Centered Origin)
    </text>
  </a>

  <a href="#contacts">
    <rect x="200" y="380" width="400" height="80" class="box"/>
    <text x="400" y="415" text-anchor="middle" class="text">
      Contact Placement
    </text>
    <text x="400" y="440" text-anchor="middle" class="text">
      Source / Drain Rows
    </text>
  </a>

  <a href="#metal-routing">
    <rect x="200" y="500" width="400" height="80" class="box"/>
    <text x="400" y="535" text-anchor="middle" class="text">
      Metal Routing
    </text>
    <text x="400" y="560" text-anchor="middle" class="text">
      M1 Straps over Contacts
    </text>
  </a>

  <a href="#geometry-creation">
    <rect x="200" y="620" width="400" height="80" class="box"/>
    <text x="400" y="655" text-anchor="middle" class="text">
      Geometry Creation
    </text>
    <text x="400" y="680" text-anchor="middle" class="text">
      dbCreateRect / Loops
    </text>
  </a>

  <a href="#pin-creation">
    <rect x="200" y="740" width="400" height="60" class="box"/>
    <text x="400" y="775" text-anchor="middle" class="text">
      Pin Creation (D / G / S / B)
    </text>
  </a>

  <line x1="400" y1="130" x2="400" y2="160" class="arrow"/>
  <line x1="400" y1="250" x2="400" y2="290" class="arrow"/>
  <line x1="400" y1="350" x2="400" y2="380" class="arrow"/>
  <line x1="400" y1="460" x2="400" y2="500" class="arrow"/>
  <line x1="400" y1="580" x2="400" y2="620" class="arrow"/>
  <line x1="400" y1="700" x2="400" y2="740" class="arrow"/>

</svg>
